<mxfile host="app.diagrams.net" modified="2023-09-28T18:58:56.367Z" agent="Mozilla/5.0 (Windows NT 10.0; Win64; x64) AppleWebKit/537.36 (KHTML, like Gecko) Chrome/117.0.0.0 Safari/537.36" etag="XacdBOFpti86t1qtJtrN" version="21.7.1" type="github">
  <diagram name="Page-1" id="4S5cc2sKB_VcDE7lHimL">
    <mxGraphModel dx="1509" dy="798" grid="0" gridSize="10" guides="1" tooltips="1" connect="1" arrows="1" fold="1" page="1" pageScale="1" pageWidth="1200" pageHeight="1600" math="0" shadow="0">
      <root>
        <mxCell id="0" />
        <mxCell id="1" parent="0" />
        <mxCell id="XRxXXD2_4JoMQfCDC5U--9" style="edgeStyle=orthogonalEdgeStyle;rounded=0;orthogonalLoop=1;jettySize=auto;html=1;entryX=0;entryY=0.5;entryDx=0;entryDy=0;fontSize=17;" edge="1" parent="1" source="XRxXXD2_4JoMQfCDC5U--1" target="XRxXXD2_4JoMQfCDC5U--2">
          <mxGeometry relative="1" as="geometry" />
        </mxCell>
        <mxCell id="XRxXXD2_4JoMQfCDC5U--1" value="P(b1)" style="rounded=0;whiteSpace=wrap;html=1;fontSize=17;" vertex="1" parent="1">
          <mxGeometry x="210" y="170" width="120" height="60" as="geometry" />
        </mxCell>
        <mxCell id="XRxXXD2_4JoMQfCDC5U--24" style="edgeStyle=orthogonalEdgeStyle;rounded=0;orthogonalLoop=1;jettySize=auto;html=1;exitX=1;exitY=0.5;exitDx=0;exitDy=0;entryX=0;entryY=0.5;entryDx=0;entryDy=0;fontSize=17;" edge="1" parent="1" source="XRxXXD2_4JoMQfCDC5U--2" target="XRxXXD2_4JoMQfCDC5U--18">
          <mxGeometry relative="1" as="geometry" />
        </mxCell>
        <mxCell id="XRxXXD2_4JoMQfCDC5U--65" style="edgeStyle=orthogonalEdgeStyle;rounded=0;orthogonalLoop=1;jettySize=auto;html=1;exitX=1;exitY=0.75;exitDx=0;exitDy=0;" edge="1" parent="1" source="XRxXXD2_4JoMQfCDC5U--2" target="XRxXXD2_4JoMQfCDC5U--62">
          <mxGeometry relative="1" as="geometry">
            <Array as="points">
              <mxPoint x="640" y="215" />
              <mxPoint x="640" y="550" />
              <mxPoint x="580" y="550" />
            </Array>
          </mxGeometry>
        </mxCell>
        <mxCell id="XRxXXD2_4JoMQfCDC5U--77" style="edgeStyle=orthogonalEdgeStyle;rounded=0;orthogonalLoop=1;jettySize=auto;html=1;exitX=0.5;exitY=1;exitDx=0;exitDy=0;entryX=0;entryY=0.25;entryDx=0;entryDy=0;" edge="1" parent="1" source="XRxXXD2_4JoMQfCDC5U--2" target="XRxXXD2_4JoMQfCDC5U--64">
          <mxGeometry relative="1" as="geometry">
            <Array as="points">
              <mxPoint x="560" y="250" />
              <mxPoint x="390" y="250" />
              <mxPoint x="390" y="785" />
            </Array>
          </mxGeometry>
        </mxCell>
        <mxCell id="XRxXXD2_4JoMQfCDC5U--2" value="=" style="rounded=0;whiteSpace=wrap;html=1;fontSize=17;" vertex="1" parent="1">
          <mxGeometry x="500" y="170" width="120" height="60" as="geometry" />
        </mxCell>
        <mxCell id="XRxXXD2_4JoMQfCDC5U--10" style="edgeStyle=orthogonalEdgeStyle;rounded=0;orthogonalLoop=1;jettySize=auto;html=1;exitX=1;exitY=0.5;exitDx=0;exitDy=0;fontSize=17;" edge="1" parent="1" source="XRxXXD2_4JoMQfCDC5U--3" target="XRxXXD2_4JoMQfCDC5U--6">
          <mxGeometry relative="1" as="geometry" />
        </mxCell>
        <mxCell id="XRxXXD2_4JoMQfCDC5U--3" value="P(b2)" style="rounded=0;whiteSpace=wrap;html=1;fontSize=17;" vertex="1" parent="1">
          <mxGeometry x="210" y="270" width="120" height="60" as="geometry" />
        </mxCell>
        <mxCell id="XRxXXD2_4JoMQfCDC5U--11" style="edgeStyle=orthogonalEdgeStyle;rounded=0;orthogonalLoop=1;jettySize=auto;html=1;exitX=1;exitY=0.5;exitDx=0;exitDy=0;entryX=0;entryY=0.5;entryDx=0;entryDy=0;fontSize=17;" edge="1" parent="1" source="XRxXXD2_4JoMQfCDC5U--4" target="XRxXXD2_4JoMQfCDC5U--7">
          <mxGeometry relative="1" as="geometry" />
        </mxCell>
        <mxCell id="XRxXXD2_4JoMQfCDC5U--4" value="P(b3)" style="rounded=0;whiteSpace=wrap;html=1;fontSize=17;" vertex="1" parent="1">
          <mxGeometry x="210" y="370" width="120" height="60" as="geometry" />
        </mxCell>
        <mxCell id="XRxXXD2_4JoMQfCDC5U--12" style="edgeStyle=orthogonalEdgeStyle;rounded=0;orthogonalLoop=1;jettySize=auto;html=1;exitX=1;exitY=0.5;exitDx=0;exitDy=0;entryX=0;entryY=0.5;entryDx=0;entryDy=0;fontSize=17;" edge="1" parent="1" source="XRxXXD2_4JoMQfCDC5U--5" target="XRxXXD2_4JoMQfCDC5U--8">
          <mxGeometry relative="1" as="geometry" />
        </mxCell>
        <mxCell id="XRxXXD2_4JoMQfCDC5U--5" value="P(b4)" style="rounded=0;whiteSpace=wrap;html=1;fontSize=17;" vertex="1" parent="1">
          <mxGeometry x="210" y="470" width="120" height="60" as="geometry" />
        </mxCell>
        <mxCell id="XRxXXD2_4JoMQfCDC5U--25" style="edgeStyle=orthogonalEdgeStyle;rounded=0;orthogonalLoop=1;jettySize=auto;html=1;exitX=1;exitY=0.5;exitDx=0;exitDy=0;entryX=0;entryY=0.5;entryDx=0;entryDy=0;fontSize=17;" edge="1" parent="1" source="XRxXXD2_4JoMQfCDC5U--6" target="XRxXXD2_4JoMQfCDC5U--19">
          <mxGeometry relative="1" as="geometry" />
        </mxCell>
        <mxCell id="XRxXXD2_4JoMQfCDC5U--68" style="edgeStyle=orthogonalEdgeStyle;rounded=0;orthogonalLoop=1;jettySize=auto;html=1;exitX=0.5;exitY=1;exitDx=0;exitDy=0;entryX=0.5;entryY=0;entryDx=0;entryDy=0;" edge="1" parent="1" source="XRxXXD2_4JoMQfCDC5U--6" target="XRxXXD2_4JoMQfCDC5U--62">
          <mxGeometry relative="1" as="geometry">
            <Array as="points">
              <mxPoint x="560" y="350" />
              <mxPoint x="670" y="350" />
              <mxPoint x="670" y="540" />
              <mxPoint x="560" y="540" />
            </Array>
          </mxGeometry>
        </mxCell>
        <mxCell id="XRxXXD2_4JoMQfCDC5U--72" style="edgeStyle=orthogonalEdgeStyle;rounded=0;orthogonalLoop=1;jettySize=auto;html=1;exitX=0.25;exitY=1;exitDx=0;exitDy=0;entryX=0;entryY=0.4;entryDx=0;entryDy=0;entryPerimeter=0;" edge="1" parent="1" source="XRxXXD2_4JoMQfCDC5U--6" target="XRxXXD2_4JoMQfCDC5U--63">
          <mxGeometry relative="1" as="geometry">
            <Array as="points">
              <mxPoint x="530" y="350" />
              <mxPoint x="460" y="350" />
              <mxPoint x="460" y="694" />
            </Array>
          </mxGeometry>
        </mxCell>
        <mxCell id="XRxXXD2_4JoMQfCDC5U--78" style="edgeStyle=orthogonalEdgeStyle;rounded=0;orthogonalLoop=1;jettySize=auto;html=1;exitX=0.75;exitY=1;exitDx=0;exitDy=0;entryX=0;entryY=0.5;entryDx=0;entryDy=0;" edge="1" parent="1" source="XRxXXD2_4JoMQfCDC5U--6" target="XRxXXD2_4JoMQfCDC5U--64">
          <mxGeometry relative="1" as="geometry">
            <Array as="points">
              <mxPoint x="420" y="330" />
              <mxPoint x="420" y="800" />
            </Array>
          </mxGeometry>
        </mxCell>
        <mxCell id="XRxXXD2_4JoMQfCDC5U--6" value="=" style="rounded=0;whiteSpace=wrap;html=1;fontSize=17;" vertex="1" parent="1">
          <mxGeometry x="500" y="270" width="120" height="60" as="geometry" />
        </mxCell>
        <mxCell id="XRxXXD2_4JoMQfCDC5U--26" style="edgeStyle=orthogonalEdgeStyle;rounded=0;orthogonalLoop=1;jettySize=auto;html=1;exitX=1;exitY=0.5;exitDx=0;exitDy=0;entryX=0;entryY=0.5;entryDx=0;entryDy=0;fontSize=17;" edge="1" parent="1" source="XRxXXD2_4JoMQfCDC5U--7" target="XRxXXD2_4JoMQfCDC5U--20">
          <mxGeometry relative="1" as="geometry" />
        </mxCell>
        <mxCell id="XRxXXD2_4JoMQfCDC5U--70" style="edgeStyle=orthogonalEdgeStyle;rounded=0;orthogonalLoop=1;jettySize=auto;html=1;exitX=0.5;exitY=1;exitDx=0;exitDy=0;entryX=0.25;entryY=0;entryDx=0;entryDy=0;" edge="1" parent="1" source="XRxXXD2_4JoMQfCDC5U--7" target="XRxXXD2_4JoMQfCDC5U--62">
          <mxGeometry relative="1" as="geometry">
            <Array as="points">
              <mxPoint x="560" y="450" />
              <mxPoint x="690" y="450" />
              <mxPoint x="690" y="550" />
              <mxPoint x="530" y="550" />
            </Array>
          </mxGeometry>
        </mxCell>
        <mxCell id="XRxXXD2_4JoMQfCDC5U--73" style="edgeStyle=orthogonalEdgeStyle;rounded=0;orthogonalLoop=1;jettySize=auto;html=1;exitX=0.25;exitY=1;exitDx=0;exitDy=0;entryX=0;entryY=0.75;entryDx=0;entryDy=0;" edge="1" parent="1" source="XRxXXD2_4JoMQfCDC5U--7" target="XRxXXD2_4JoMQfCDC5U--63">
          <mxGeometry relative="1" as="geometry">
            <Array as="points">
              <mxPoint x="530" y="450" />
              <mxPoint x="480" y="450" />
              <mxPoint x="480" y="715" />
            </Array>
          </mxGeometry>
        </mxCell>
        <mxCell id="XRxXXD2_4JoMQfCDC5U--7" value="=" style="rounded=0;whiteSpace=wrap;html=1;fontSize=17;" vertex="1" parent="1">
          <mxGeometry x="500" y="370" width="120" height="60" as="geometry" />
        </mxCell>
        <mxCell id="XRxXXD2_4JoMQfCDC5U--27" style="edgeStyle=orthogonalEdgeStyle;rounded=0;orthogonalLoop=1;jettySize=auto;html=1;exitX=1;exitY=0.5;exitDx=0;exitDy=0;entryX=0;entryY=0.5;entryDx=0;entryDy=0;fontSize=17;" edge="1" parent="1" source="XRxXXD2_4JoMQfCDC5U--8" target="XRxXXD2_4JoMQfCDC5U--21">
          <mxGeometry relative="1" as="geometry" />
        </mxCell>
        <mxCell id="XRxXXD2_4JoMQfCDC5U--74" style="edgeStyle=orthogonalEdgeStyle;rounded=0;orthogonalLoop=1;jettySize=auto;html=1;exitX=0.25;exitY=1;exitDx=0;exitDy=0;entryX=0;entryY=0.25;entryDx=0;entryDy=0;" edge="1" parent="1" source="XRxXXD2_4JoMQfCDC5U--8" target="XRxXXD2_4JoMQfCDC5U--63">
          <mxGeometry relative="1" as="geometry">
            <Array as="points">
              <mxPoint x="530" y="550" />
              <mxPoint x="430" y="550" />
              <mxPoint x="430" y="685" />
            </Array>
          </mxGeometry>
        </mxCell>
        <mxCell id="XRxXXD2_4JoMQfCDC5U--79" style="edgeStyle=orthogonalEdgeStyle;rounded=0;orthogonalLoop=1;jettySize=auto;html=1;exitX=0;exitY=0.75;exitDx=0;exitDy=0;entryX=0;entryY=0.75;entryDx=0;entryDy=0;" edge="1" parent="1" source="XRxXXD2_4JoMQfCDC5U--8" target="XRxXXD2_4JoMQfCDC5U--64">
          <mxGeometry relative="1" as="geometry" />
        </mxCell>
        <mxCell id="XRxXXD2_4JoMQfCDC5U--8" value="=" style="rounded=0;whiteSpace=wrap;html=1;fontSize=17;" vertex="1" parent="1">
          <mxGeometry x="500" y="470" width="120" height="60" as="geometry" />
        </mxCell>
        <mxCell id="XRxXXD2_4JoMQfCDC5U--13" value="b1" style="text;html=1;strokeColor=none;fillColor=none;align=center;verticalAlign=middle;whiteSpace=wrap;rounded=0;fontSize=17;" vertex="1" parent="1">
          <mxGeometry x="530" y="140" width="60" height="30" as="geometry" />
        </mxCell>
        <mxCell id="XRxXXD2_4JoMQfCDC5U--14" value="b2" style="text;html=1;strokeColor=none;fillColor=none;align=center;verticalAlign=middle;whiteSpace=wrap;rounded=0;fontSize=17;" vertex="1" parent="1">
          <mxGeometry x="530" y="240" width="60" height="30" as="geometry" />
        </mxCell>
        <mxCell id="XRxXXD2_4JoMQfCDC5U--17" value="b4" style="text;html=1;strokeColor=none;fillColor=none;align=center;verticalAlign=middle;whiteSpace=wrap;rounded=0;fontSize=17;" vertex="1" parent="1">
          <mxGeometry x="530" y="440" width="60" height="30" as="geometry" />
        </mxCell>
        <mxCell id="XRxXXD2_4JoMQfCDC5U--37" style="edgeStyle=orthogonalEdgeStyle;rounded=0;orthogonalLoop=1;jettySize=auto;html=1;exitX=1;exitY=0.5;exitDx=0;exitDy=0;fontSize=17;" edge="1" parent="1" source="XRxXXD2_4JoMQfCDC5U--18">
          <mxGeometry relative="1" as="geometry">
            <mxPoint x="1020" y="200" as="targetPoint" />
          </mxGeometry>
        </mxCell>
        <mxCell id="XRxXXD2_4JoMQfCDC5U--18" value="P(r1|c1)" style="rounded=0;whiteSpace=wrap;html=1;fontSize=17;" vertex="1" parent="1">
          <mxGeometry x="790" y="170" width="120" height="60" as="geometry" />
        </mxCell>
        <mxCell id="XRxXXD2_4JoMQfCDC5U--39" style="edgeStyle=orthogonalEdgeStyle;rounded=0;orthogonalLoop=1;jettySize=auto;html=1;fontSize=17;" edge="1" parent="1" source="XRxXXD2_4JoMQfCDC5U--19">
          <mxGeometry relative="1" as="geometry">
            <mxPoint x="1020" y="300" as="targetPoint" />
          </mxGeometry>
        </mxCell>
        <mxCell id="XRxXXD2_4JoMQfCDC5U--19" value="P(r2|c2)" style="rounded=0;whiteSpace=wrap;html=1;fontSize=17;" vertex="1" parent="1">
          <mxGeometry x="790" y="270" width="120" height="60" as="geometry" />
        </mxCell>
        <mxCell id="XRxXXD2_4JoMQfCDC5U--40" style="edgeStyle=orthogonalEdgeStyle;rounded=0;orthogonalLoop=1;jettySize=auto;html=1;fontSize=17;" edge="1" parent="1" source="XRxXXD2_4JoMQfCDC5U--20">
          <mxGeometry relative="1" as="geometry">
            <mxPoint x="1020" y="400" as="targetPoint" />
          </mxGeometry>
        </mxCell>
        <mxCell id="XRxXXD2_4JoMQfCDC5U--20" value="P(r3|c3)" style="rounded=0;whiteSpace=wrap;html=1;fontSize=17;" vertex="1" parent="1">
          <mxGeometry x="790" y="370" width="120" height="60" as="geometry" />
        </mxCell>
        <mxCell id="XRxXXD2_4JoMQfCDC5U--41" style="edgeStyle=orthogonalEdgeStyle;rounded=0;orthogonalLoop=1;jettySize=auto;html=1;fontSize=17;" edge="1" parent="1" source="XRxXXD2_4JoMQfCDC5U--21">
          <mxGeometry relative="1" as="geometry">
            <mxPoint x="1020" y="500" as="targetPoint" />
          </mxGeometry>
        </mxCell>
        <mxCell id="XRxXXD2_4JoMQfCDC5U--21" value="P(r4|c4)" style="rounded=0;whiteSpace=wrap;html=1;fontSize=17;" vertex="1" parent="1">
          <mxGeometry x="790" y="470" width="120" height="60" as="geometry" />
        </mxCell>
        <mxCell id="XRxXXD2_4JoMQfCDC5U--42" style="edgeStyle=orthogonalEdgeStyle;rounded=0;orthogonalLoop=1;jettySize=auto;html=1;fontSize=17;" edge="1" parent="1" source="XRxXXD2_4JoMQfCDC5U--22">
          <mxGeometry relative="1" as="geometry">
            <mxPoint x="1020" y="600" as="targetPoint" />
          </mxGeometry>
        </mxCell>
        <mxCell id="XRxXXD2_4JoMQfCDC5U--22" value="P(r5|c5)" style="rounded=0;whiteSpace=wrap;html=1;fontSize=17;" vertex="1" parent="1">
          <mxGeometry x="790" y="570" width="120" height="60" as="geometry" />
        </mxCell>
        <mxCell id="XRxXXD2_4JoMQfCDC5U--43" style="edgeStyle=orthogonalEdgeStyle;rounded=0;orthogonalLoop=1;jettySize=auto;html=1;fontSize=17;" edge="1" parent="1" source="XRxXXD2_4JoMQfCDC5U--23">
          <mxGeometry relative="1" as="geometry">
            <mxPoint x="1020" y="700" as="targetPoint" />
          </mxGeometry>
        </mxCell>
        <mxCell id="XRxXXD2_4JoMQfCDC5U--23" value="P(r6|c6)" style="rounded=0;whiteSpace=wrap;html=1;fontSize=17;" vertex="1" parent="1">
          <mxGeometry x="790" y="670" width="120" height="60" as="geometry" />
        </mxCell>
        <mxCell id="XRxXXD2_4JoMQfCDC5U--28" value="b1" style="text;html=1;strokeColor=none;fillColor=none;align=center;verticalAlign=middle;whiteSpace=wrap;rounded=0;fontSize=17;" vertex="1" parent="1">
          <mxGeometry x="390" y="170" width="60" height="30" as="geometry" />
        </mxCell>
        <mxCell id="XRxXXD2_4JoMQfCDC5U--29" value="b2" style="text;html=1;strokeColor=none;fillColor=none;align=center;verticalAlign=middle;whiteSpace=wrap;rounded=0;fontSize=17;" vertex="1" parent="1">
          <mxGeometry x="390" y="260" width="60" height="30" as="geometry" />
        </mxCell>
        <mxCell id="XRxXXD2_4JoMQfCDC5U--31" value="b3" style="text;html=1;strokeColor=none;fillColor=none;align=center;verticalAlign=middle;whiteSpace=wrap;rounded=0;fontSize=17;" vertex="1" parent="1">
          <mxGeometry x="390" y="360" width="60" height="30" as="geometry" />
        </mxCell>
        <mxCell id="XRxXXD2_4JoMQfCDC5U--32" value="b4" style="text;html=1;strokeColor=none;fillColor=none;align=center;verticalAlign=middle;whiteSpace=wrap;rounded=0;fontSize=17;" vertex="1" parent="1">
          <mxGeometry x="390" y="460" width="60" height="30" as="geometry" />
        </mxCell>
        <mxCell id="XRxXXD2_4JoMQfCDC5U--33" value="c1" style="text;html=1;strokeColor=none;fillColor=none;align=center;verticalAlign=middle;whiteSpace=wrap;rounded=0;fontSize=17;" vertex="1" parent="1">
          <mxGeometry x="670" y="170" width="60" height="30" as="geometry" />
        </mxCell>
        <mxCell id="XRxXXD2_4JoMQfCDC5U--34" value="c2" style="text;html=1;strokeColor=none;fillColor=none;align=center;verticalAlign=middle;whiteSpace=wrap;rounded=0;fontSize=17;" vertex="1" parent="1">
          <mxGeometry x="670" y="270" width="60" height="30" as="geometry" />
        </mxCell>
        <mxCell id="XRxXXD2_4JoMQfCDC5U--35" value="c3" style="text;html=1;strokeColor=none;fillColor=none;align=center;verticalAlign=middle;whiteSpace=wrap;rounded=0;fontSize=17;" vertex="1" parent="1">
          <mxGeometry x="670" y="370" width="60" height="30" as="geometry" />
        </mxCell>
        <mxCell id="XRxXXD2_4JoMQfCDC5U--36" value="c4" style="text;html=1;strokeColor=none;fillColor=none;align=center;verticalAlign=middle;whiteSpace=wrap;rounded=0;fontSize=17;" vertex="1" parent="1">
          <mxGeometry x="670" y="470" width="60" height="30" as="geometry" />
        </mxCell>
        <mxCell id="XRxXXD2_4JoMQfCDC5U--44" value="r1" style="text;html=1;strokeColor=none;fillColor=none;align=center;verticalAlign=middle;whiteSpace=wrap;rounded=0;fontSize=17;" vertex="1" parent="1">
          <mxGeometry x="930" y="170" width="60" height="30" as="geometry" />
        </mxCell>
        <mxCell id="XRxXXD2_4JoMQfCDC5U--45" value="r2" style="text;html=1;strokeColor=none;fillColor=none;align=center;verticalAlign=middle;whiteSpace=wrap;rounded=0;fontSize=17;" vertex="1" parent="1">
          <mxGeometry x="930" y="270" width="60" height="30" as="geometry" />
        </mxCell>
        <mxCell id="XRxXXD2_4JoMQfCDC5U--46" value="r3" style="text;html=1;strokeColor=none;fillColor=none;align=center;verticalAlign=middle;whiteSpace=wrap;rounded=0;fontSize=17;" vertex="1" parent="1">
          <mxGeometry x="930" y="370" width="60" height="30" as="geometry" />
        </mxCell>
        <mxCell id="XRxXXD2_4JoMQfCDC5U--47" value="r4" style="text;html=1;strokeColor=none;fillColor=none;align=center;verticalAlign=middle;whiteSpace=wrap;rounded=0;fontSize=17;" vertex="1" parent="1">
          <mxGeometry x="930" y="460" width="60" height="30" as="geometry" />
        </mxCell>
        <mxCell id="XRxXXD2_4JoMQfCDC5U--51" value="r5" style="text;html=1;strokeColor=none;fillColor=none;align=center;verticalAlign=middle;whiteSpace=wrap;rounded=0;fontSize=17;" vertex="1" parent="1">
          <mxGeometry x="930" y="570" width="60" height="30" as="geometry" />
        </mxCell>
        <mxCell id="XRxXXD2_4JoMQfCDC5U--52" value="r6" style="text;html=1;strokeColor=none;fillColor=none;align=center;verticalAlign=middle;whiteSpace=wrap;rounded=0;fontSize=17;" vertex="1" parent="1">
          <mxGeometry x="930" y="660" width="60" height="30" as="geometry" />
        </mxCell>
        <mxCell id="XRxXXD2_4JoMQfCDC5U--53" style="edgeStyle=orthogonalEdgeStyle;rounded=0;orthogonalLoop=1;jettySize=auto;html=1;fontSize=17;" edge="1" parent="1" source="XRxXXD2_4JoMQfCDC5U--54">
          <mxGeometry relative="1" as="geometry">
            <mxPoint x="1020" y="800" as="targetPoint" />
          </mxGeometry>
        </mxCell>
        <mxCell id="XRxXXD2_4JoMQfCDC5U--54" value="P(r7|c7)" style="rounded=0;whiteSpace=wrap;html=1;fontSize=17;" vertex="1" parent="1">
          <mxGeometry x="790" y="770" width="120" height="60" as="geometry" />
        </mxCell>
        <mxCell id="XRxXXD2_4JoMQfCDC5U--55" style="edgeStyle=orthogonalEdgeStyle;rounded=0;orthogonalLoop=1;jettySize=auto;html=1;fontSize=17;" edge="1" parent="1" source="XRxXXD2_4JoMQfCDC5U--56">
          <mxGeometry relative="1" as="geometry">
            <mxPoint x="1020" y="900" as="targetPoint" />
          </mxGeometry>
        </mxCell>
        <mxCell id="XRxXXD2_4JoMQfCDC5U--56" value="P(r8|c8)" style="rounded=0;whiteSpace=wrap;html=1;fontSize=17;" vertex="1" parent="1">
          <mxGeometry x="790" y="870" width="120" height="60" as="geometry" />
        </mxCell>
        <mxCell id="XRxXXD2_4JoMQfCDC5U--57" value="r7" style="text;html=1;strokeColor=none;fillColor=none;align=center;verticalAlign=middle;whiteSpace=wrap;rounded=0;fontSize=17;" vertex="1" parent="1">
          <mxGeometry x="930" y="770" width="60" height="30" as="geometry" />
        </mxCell>
        <mxCell id="XRxXXD2_4JoMQfCDC5U--58" value="r8" style="text;html=1;strokeColor=none;fillColor=none;align=center;verticalAlign=middle;whiteSpace=wrap;rounded=0;fontSize=17;" vertex="1" parent="1">
          <mxGeometry x="930" y="860" width="60" height="30" as="geometry" />
        </mxCell>
        <mxCell id="XRxXXD2_4JoMQfCDC5U--60" style="edgeStyle=orthogonalEdgeStyle;rounded=0;orthogonalLoop=1;jettySize=auto;html=1;entryX=0;entryY=0.5;entryDx=0;entryDy=0;fontSize=17;" edge="1" parent="1" source="XRxXXD2_4JoMQfCDC5U--59" target="XRxXXD2_4JoMQfCDC5U--54">
          <mxGeometry relative="1" as="geometry" />
        </mxCell>
        <mxCell id="XRxXXD2_4JoMQfCDC5U--61" style="edgeStyle=orthogonalEdgeStyle;rounded=0;orthogonalLoop=1;jettySize=auto;html=1;entryX=0;entryY=0.75;entryDx=0;entryDy=0;fontSize=17;" edge="1" parent="1" source="XRxXXD2_4JoMQfCDC5U--59" target="XRxXXD2_4JoMQfCDC5U--56">
          <mxGeometry relative="1" as="geometry">
            <Array as="points">
              <mxPoint x="670" y="900" />
              <mxPoint x="790" y="900" />
            </Array>
          </mxGeometry>
        </mxCell>
        <mxCell id="XRxXXD2_4JoMQfCDC5U--59" value="=" style="rounded=0;whiteSpace=wrap;html=1;fontSize=17;" vertex="1" parent="1">
          <mxGeometry x="610" y="770" width="120" height="60" as="geometry" />
        </mxCell>
        <mxCell id="XRxXXD2_4JoMQfCDC5U--71" style="edgeStyle=orthogonalEdgeStyle;rounded=0;orthogonalLoop=1;jettySize=auto;html=1;entryX=0;entryY=0.5;entryDx=0;entryDy=0;" edge="1" parent="1" source="XRxXXD2_4JoMQfCDC5U--62" target="XRxXXD2_4JoMQfCDC5U--22">
          <mxGeometry relative="1" as="geometry" />
        </mxCell>
        <mxCell id="XRxXXD2_4JoMQfCDC5U--62" value="+" style="rounded=0;whiteSpace=wrap;html=1;fontSize=17;" vertex="1" parent="1">
          <mxGeometry x="500" y="570" width="120" height="60" as="geometry" />
        </mxCell>
        <mxCell id="XRxXXD2_4JoMQfCDC5U--75" style="edgeStyle=orthogonalEdgeStyle;rounded=0;orthogonalLoop=1;jettySize=auto;html=1;exitX=1;exitY=0.5;exitDx=0;exitDy=0;entryX=0;entryY=0.5;entryDx=0;entryDy=0;" edge="1" parent="1" source="XRxXXD2_4JoMQfCDC5U--63" target="XRxXXD2_4JoMQfCDC5U--23">
          <mxGeometry relative="1" as="geometry" />
        </mxCell>
        <mxCell id="XRxXXD2_4JoMQfCDC5U--63" value="+" style="rounded=0;whiteSpace=wrap;html=1;fontSize=17;" vertex="1" parent="1">
          <mxGeometry x="500" y="670" width="120" height="60" as="geometry" />
        </mxCell>
        <mxCell id="XRxXXD2_4JoMQfCDC5U--76" style="edgeStyle=orthogonalEdgeStyle;rounded=0;orthogonalLoop=1;jettySize=auto;html=1;exitX=1;exitY=0.5;exitDx=0;exitDy=0;entryX=0;entryY=0.5;entryDx=0;entryDy=0;" edge="1" parent="1" source="XRxXXD2_4JoMQfCDC5U--64" target="XRxXXD2_4JoMQfCDC5U--59">
          <mxGeometry relative="1" as="geometry" />
        </mxCell>
        <mxCell id="XRxXXD2_4JoMQfCDC5U--64" value="+" style="rounded=0;whiteSpace=wrap;html=1;fontSize=17;" vertex="1" parent="1">
          <mxGeometry x="460" y="770" width="120" height="60" as="geometry" />
        </mxCell>
        <mxCell id="XRxXXD2_4JoMQfCDC5U--69" value="b3" style="text;html=1;strokeColor=none;fillColor=none;align=center;verticalAlign=middle;whiteSpace=wrap;rounded=0;fontSize=17;" vertex="1" parent="1">
          <mxGeometry x="530" y="350" width="60" height="30" as="geometry" />
        </mxCell>
        <mxCell id="XRxXXD2_4JoMQfCDC5U--80" value="c5" style="text;html=1;strokeColor=none;fillColor=none;align=center;verticalAlign=middle;whiteSpace=wrap;rounded=0;fontSize=17;" vertex="1" parent="1">
          <mxGeometry x="690" y="570" width="60" height="30" as="geometry" />
        </mxCell>
        <mxCell id="XRxXXD2_4JoMQfCDC5U--81" value="c6" style="text;html=1;strokeColor=none;fillColor=none;align=center;verticalAlign=middle;whiteSpace=wrap;rounded=0;fontSize=17;" vertex="1" parent="1">
          <mxGeometry x="700" y="670" width="60" height="30" as="geometry" />
        </mxCell>
        <mxCell id="XRxXXD2_4JoMQfCDC5U--82" value="c7" style="text;html=1;strokeColor=none;fillColor=none;align=center;verticalAlign=middle;whiteSpace=wrap;rounded=0;fontSize=17;" vertex="1" parent="1">
          <mxGeometry x="730" y="760" width="60" height="30" as="geometry" />
        </mxCell>
        <mxCell id="XRxXXD2_4JoMQfCDC5U--84" value="c8" style="text;html=1;strokeColor=none;fillColor=none;align=center;verticalAlign=middle;whiteSpace=wrap;rounded=0;fontSize=17;" vertex="1" parent="1">
          <mxGeometry x="710" y="860" width="60" height="30" as="geometry" />
        </mxCell>
      </root>
    </mxGraphModel>
  </diagram>
</mxfile>
